<svg xmlns="http://www.w3.org/2000/svg" width="1760" height="1333" viewBox="0 0 1760 1333" version="1.1"><path d="M 865.500 260.659 C 837.490 264.019, 811.446 273.506, 791 287.796 C 766.780 304.725, 749.404 324.616, 737.097 349.500 C 726.406 371.115, 722.109 388.626, 721.265 414.016 C 720.444 438.742, 724.153 459.442, 732.910 479 C 738.879 492.331, 745.721 503.305, 761.622 525.049 C 790.140 564.045, 795.116 573.897, 798.460 597.977 C 799.337 604.289, 800.379 609.689, 800.777 609.977 C 801.175 610.265, 818.038 610.377, 838.250 610.226 L 875 609.952 874.972 592.226 L 874.943 574.500 869.449 571.174 C 862.205 566.790, 858.023 559.854, 858.009 552.200 C 857.995 544.002, 863.491 535.045, 870.487 531.867 C 879.558 527.746, 890.301 530.585, 896.536 538.750 C 903.902 548.398, 903.407 558.530, 895.156 566.958 C 892.595 569.574, 889.606 572.194, 888.514 572.779 C 886.668 573.769, 886.501 575.117, 886.152 591.922 L 885.777 610 922.777 610 L 959.777 610 960.347 606.750 C 960.660 604.962, 961.421 599.680, 962.038 595.011 C 964.466 576.654, 971.905 560.675, 988.580 538 C 1022.988 491.212, 1031.741 474.080, 1036.354 444.489 C 1038.637 429.846, 1039.035 420.713, 1037.965 407.575 C 1035.107 372.519, 1022.701 341.621, 1001.401 316.514 C 989.534 302.526, 967.082 284.612, 951.442 276.652 C 942.985 272.347, 923.394 265.711, 913 263.629 C 897.838 260.591, 876.952 259.286, 865.500 260.659 M 673.655 282.829 C 671.193 285.549, 671.626 289.272, 674.750 292.232 C 678.755 296.027, 702.762 312.002, 707.842 314.252 L 712.185 316.175 714.592 313.913 C 717.750 310.947, 717.638 307.966, 714.250 304.821 C 707.642 298.687, 679.977 281, 676.990 281 C 676.066 281, 674.565 281.823, 673.655 282.829 M 1076.176 283.971 C 1073.248 285.585, 1066.318 289.964, 1060.776 293.700 C 1044.397 304.744, 1039.958 309.815, 1043.537 313.395 C 1046.933 316.790, 1051.468 315.441, 1063.313 307.509 C 1079.693 296.541, 1088.430 289.745, 1088.829 287.661 C 1089.243 285.495, 1085.343 280.992, 1083.076 281.018 C 1082.209 281.028, 1079.104 282.357, 1076.176 283.971 M 830.638 301.202 C 818.966 302.704, 808.460 309.671, 802.834 319.640 C 799.117 326.225, 798.477 326.725, 791.379 328.574 C 780.829 331.321, 773.263 337.602, 767.979 348 C 766.253 351.396, 765.532 354.987, 765.041 362.635 L 764.389 372.769 758.054 379.635 C 749.002 389.444, 746.737 394.886, 746.191 408.132 C 745.756 418.682, 745.784 418.840, 749.333 426.220 C 751.467 430.657, 754.750 435.444, 757.457 438.068 C 759.956 440.489, 762 443.058, 762 443.775 C 762 444.493, 760.988 446.974, 759.752 449.290 C 757.766 453.009, 757.504 454.958, 757.502 466 C 757.500 477.996, 757.621 478.722, 760.496 484 C 766.692 495.376, 779.801 505.008, 792.017 507.160 C 797.873 508.191, 798.163 508.388, 800.437 512.864 C 805.290 522.418, 815.876 531.813, 824.366 534.098 C 830.590 535.775, 840.084 535.315, 846.155 533.043 C 849.263 531.880, 854.014 528.849, 857.253 525.962 C 868.386 516.039, 872.578 501.485, 868.106 488.282 C 865.398 480.285, 865.420 479.973, 869.113 473.971 C 874.257 465.610, 876 459.827, 876 451.115 C 876 442.954, 875.033 439.174, 870.489 429.569 L 867.802 423.888 870.047 418.694 C 872.852 412.205, 873.926 402.656, 872.901 393.321 C 872.042 385.492, 869.606 379.778, 864.379 373.332 C 862.521 371.039, 861 368.681, 861 368.090 C 861 367.500, 862.482 365.076, 864.293 362.703 C 868.422 357.293, 871.776 349.577, 873.092 342.459 C 873.886 338.167, 873.773 335.661, 872.575 330.985 C 867.276 310.301, 850.808 298.606, 830.638 301.202 M 914.223 301.541 C 907.906 303.255, 899.479 308.453, 895.660 312.993 C 889.627 320.162, 887.645 325.705, 887.196 336.660 C 886.682 349.210, 888.231 354.547, 894.528 361.924 C 896.988 364.806, 899 367.395, 899 367.677 C 899 367.960, 896.580 371.860, 893.623 376.345 C 886.865 386.593, 885.626 390.433, 885.720 400.837 C 885.779 407.280, 886.413 410.868, 888.514 416.627 L 891.232 424.080 888.236 430.790 C 880.810 447.417, 881.701 460.725, 891.182 474.803 L 894.735 480.080 892.242 486.252 C 890.043 491.698, 889.806 493.485, 890.226 501.462 C 890.609 508.713, 891.248 511.587, 893.462 516 C 897.146 523.344, 904.688 530.365, 911.717 532.995 C 917.834 535.284, 929.903 535.834, 935.785 534.092 C 943.197 531.898, 950.772 525.084, 957.506 514.557 C 961.456 508.383, 962.722 507.498, 968.682 506.740 C 978.346 505.512, 989.805 497.654, 995.991 488.014 C 1003.250 476.703, 1004.715 464.533, 1000.447 451.021 L 997.894 442.940 1002.912 437.309 C 1005.673 434.212, 1008.881 429.656, 1010.043 427.185 C 1014.243 418.250, 1014.156 400.087, 1009.871 391.233 C 1008.611 388.630, 1004.990 383.716, 1001.825 380.313 C 995.619 373.641, 995.642 373.700, 994.254 360.897 C 992.407 343.869, 985.274 335.015, 968.194 328.548 C 962.128 326.252, 960.467 325.116, 958.408 321.855 C 951.813 311.407, 940.382 302.544, 932.172 301.512 C 921.502 300.171, 919.256 300.175, 914.223 301.541 M 831.500 310.974 C 823.423 312.831, 816.775 317.295, 811.911 324.125 C 809.802 327.087, 810.370 328.050, 815.342 329.940 C 817.571 330.787, 818.985 330.601, 822.505 328.998 C 827.989 326.499, 829.238 326.500, 831.504 329.004 C 833.692 331.422, 832.976 333.455, 827.723 339.737 C 825.593 342.284, 823.910 345.576, 823.501 347.992 C 822.849 351.855, 820.088 355, 817.349 355 C 814.778 355, 813 351.813, 812.985 347.179 C 812.976 344.605, 812.630 341.966, 812.214 341.313 C 810.037 337.889, 797.944 336.872, 791.487 339.570 C 786.142 341.803, 777.503 350.736, 776.673 354.887 C 774.763 364.435, 776.588 373.400, 781.984 380.977 C 784.556 384.589, 784.593 388.613, 782.066 389.965 C 779.161 391.520, 778.668 391.340, 773.601 386.880 L 768.920 382.759 765.472 386.630 C 763.576 388.758, 760.617 393.292, 758.897 396.705 C 756.111 402.232, 755.812 403.654, 756.163 409.705 C 756.646 418.051, 759.367 423.998, 765.514 430.146 C 771.220 435.852, 777.336 438.917, 785.248 440.035 C 791.542 440.925, 794 442.619, 794 446.069 C 794 449.468, 791.423 450.235, 781.265 449.860 L 771.500 449.500 769.525 453.500 C 768.301 455.980, 767.406 460.227, 767.170 464.679 C 766.849 470.716, 767.181 472.705, 769.257 477.179 C 773.459 486.236, 783.480 494.094, 792.711 495.570 C 796.199 496.128, 796.972 495.921, 797.905 494.178 C 799.568 491.069, 799.226 487.098, 796.874 482.240 C 795.150 478.678, 794.957 477.390, 795.853 475.424 C 797.460 471.896, 800.617 472.392, 805.561 476.950 C 808.337 479.508, 811.793 481.465, 815.374 482.506 C 821.098 484.170, 822.729 486.126, 821.534 489.892 C 820.854 492.035, 818.210 492.966, 812.750 492.986 L 809 493 809 497.962 C 809 513.660, 820.799 524.819, 836.351 523.829 C 848.768 523.038, 857.604 514.457, 858.725 502.099 C 859.532 493.199, 857.254 488.076, 848.822 479.826 C 841.398 472.562, 840.371 469.699, 844.511 467.813 C 846.599 466.861, 847.850 467.056, 851.936 468.970 C 854.639 470.236, 857.501 471.022, 858.297 470.716 C 859.092 470.411, 860.814 467.987, 862.122 465.331 C 865.296 458.884, 865.552 443.785, 862.598 437.224 C 861.552 434.901, 860.518 433, 860.301 433 C 859.460 433, 844.410 441.402, 842.807 442.766 C 841.875 443.559, 840.832 445.490, 840.488 447.057 C 839.114 453.310, 833.433 457.033, 830.200 453.800 C 829.469 453.069, 829 449.508, 829 444.684 C 829 437.157, 828.821 436.525, 825.368 431.821 C 822.198 427.502, 821.878 426.564, 822.847 424.437 C 823.705 422.553, 824.725 422, 827.342 422 C 830.099 422, 831.567 422.899, 835.258 426.845 L 839.790 431.690 844.989 429.132 C 852.036 425.665, 859.532 417.314, 861.478 410.762 C 863.422 404.215, 863.422 395.593, 861.476 389.883 C 860.638 387.423, 857.944 383.116, 855.490 380.310 L 851.029 375.210 838.764 375.665 C 829.717 376.001, 825.844 375.770, 824 374.785 C 821.177 373.277, 820.343 370.097, 821.972 367.053 C 822.965 365.197, 823.941 365.016, 832.284 365.141 C 838.732 365.238, 842.551 364.811, 845 363.718 C 850.464 361.281, 856.287 355.720, 859.513 349.859 C 866.709 336.783, 860.286 320.004, 845.586 313.483 C 839.445 310.758, 835.496 310.055, 831.500 310.974 M 915.675 312.561 C 908.308 314.917, 900.643 322.865, 898.471 330.402 C 894.777 343.219, 900.518 356.591, 912.220 362.422 C 916.640 364.625, 918.717 365, 926.496 365 C 936.434 365, 938 365.705, 938 370.177 C 938 375.542, 930.717 377.336, 916.154 375.557 L 909.808 374.781 905.819 378.641 C 900.708 383.586, 898.393 388.139, 896.917 396.147 C 895.920 401.559, 895.984 403.435, 897.327 408.054 C 900.113 417.638, 906.805 425.354, 915.880 429.446 L 919.820 431.223 924.239 426.611 C 928.979 421.664, 932.551 420.694, 935.429 423.571 C 937.537 425.680, 937.516 425.770, 933.460 432.034 C 930.081 437.252, 929.950 437.783, 930.576 443.748 C 931.093 448.667, 930.884 450.528, 929.593 452.498 C 926.584 457.091, 922.395 455.061, 920.097 447.897 C 919.462 445.915, 917.943 443.376, 916.721 442.254 C 913.526 439.320, 900.112 432.813, 898.857 433.589 C 897.214 434.604, 895.293 439.970, 894.526 445.684 C 893.725 451.654, 895.311 460.687, 898.136 466.250 C 900.430 470.766, 902.618 471.034, 909.352 467.625 L 914.042 465.251 916.178 468.249 C 918.083 470.925, 918.161 471.493, 916.906 473.517 C 916.133 474.764, 913.479 477.464, 911.009 479.515 C 905.422 484.154, 902.518 488.362, 900.993 494.026 C 898.231 504.282, 904.398 516.617, 914.764 521.571 C 919.072 523.630, 927.274 524.546, 932.543 523.558 C 940.005 522.158, 949.298 510.402, 950.631 500.676 C 951.348 495.443, 949.445 493, 944.651 493 C 937.617 493, 934.187 486.468, 939.750 483.666 C 941.263 482.904, 943.823 481.962, 945.441 481.573 C 947.058 481.184, 950.605 479.096, 953.322 476.933 C 959.072 472.354, 962.531 471.877, 964.154 475.439 C 965.062 477.431, 964.875 478.627, 963.133 481.970 C 959.815 488.336, 960.716 495.993, 964.785 496.005 C 972.175 496.026, 983.605 487.817, 988.367 479.067 C 991.799 472.762, 992.881 461.956, 990.778 455 L 989.417 450.500 979.140 449.816 C 968.686 449.119, 966 448.135, 966 445 C 966 442.305, 967.929 441.250, 975.901 439.588 C 989.522 436.748, 998.245 429.648, 1001.474 418.774 C 1004.471 408.683, 1002.649 397.606, 996.724 389.889 C 991.650 383.280, 990.875 383.095, 985.932 387.326 C 981.126 391.440, 979.077 391.847, 976.655 389.171 C 974.341 386.614, 974.587 384.072, 977.574 379.677 C 986.405 366.680, 986.139 354.659, 976.808 345.115 C 970.180 338.336, 961.443 336.349, 950.443 339.119 L 946 340.237 946 345.184 C 946 351.222, 944.645 354.005, 941.715 353.985 C 937.622 353.956, 935 350.447, 935 344.997 C 935 342.635, 933.891 340.722, 930.500 337.233 C 925.606 332.198, 925.186 330.956, 927.571 328.571 C 929.677 326.465, 932.280 326.592, 937.067 329.034 C 940.854 330.966, 941.229 330.985, 944.527 329.420 C 946.491 328.488, 948 327.030, 948 326.065 C 948 323.848, 940.104 315.622, 935.877 313.437 C 931.333 311.086, 921.606 310.665, 915.675 312.561 M 635.250 378.474 C 632.943 380.155, 632.350 383.426, 633.908 385.885 C 635.744 388.784, 682.027 396.373, 684.259 394.141 C 685.800 392.600, 685.584 387.154, 683.917 385.496 C 682.219 383.808, 655.311 378.237, 644.892 377.417 C 638.963 376.950, 637.055 377.159, 635.250 378.474 M 1102.604 378.970 C 1088.056 381.488, 1077.763 383.995, 1076.316 385.373 C 1074.366 387.228, 1073.804 391.354, 1075.234 393.307 C 1076.496 395.032, 1077.153 395.042, 1089.529 393.538 C 1109.206 391.147, 1121.255 388.982, 1123.750 387.390 C 1126.099 385.891, 1126.761 381.750, 1125.077 379.090 C 1123.699 376.913, 1114.762 376.865, 1102.604 378.970 M 794 388.868 C 790.925 389.743, 790.120 393.977, 792.564 396.421 C 793.816 397.673, 795.644 398.018, 799.848 397.796 C 804.963 397.526, 805.546 397.255, 806.429 394.734 C 807.161 392.643, 807.044 391.630, 805.949 390.582 C 804.168 388.879, 797.383 387.905, 794 388.868 M 953.571 390.571 C 951.661 392.482, 951.627 393.108, 953.311 395.410 C 955.210 398.008, 963.229 398.735, 966.480 396.605 C 969.589 394.568, 969.686 392.594, 966.777 390.557 C 963.838 388.498, 955.636 388.507, 953.571 390.571 M 658 463.509 C 636.066 467.959, 636 467.987, 636 472.853 C 636 480.081, 638.265 480.288, 663 475.324 C 680.763 471.758, 685.260 470.118, 686.420 466.780 C 687.166 464.633, 686.978 463.633, 685.527 462.030 C 682.965 459.199, 677.902 459.471, 658 463.509 M 1074.245 461.250 C 1072.144 463.876, 1071.952 466.719, 1073.727 468.893 C 1075.948 471.613, 1082.095 473.240, 1102.836 476.598 C 1121.213 479.573, 1124.012 479.265, 1123.985 474.271 C 1123.954 468.791, 1123.090 468.428, 1097.206 462.998 C 1081.725 459.751, 1075.805 459.300, 1074.245 461.250 M 704.275 544.611 C 689.986 554.274, 676 565.765, 676 567.841 C 676 570.195, 678.013 572.654, 680.552 573.403 C 683.637 574.314, 697.952 565.229, 714.692 551.736 C 721.220 546.474, 722.306 544.961, 721.347 542.463 C 720.837 541.132, 716.084 538, 714.574 538 C 714.286 538, 709.651 540.975, 704.275 544.611 M 1041.337 539.182 C 1038.796 540.411, 1037.989 542.739, 1039.081 545.689 C 1040.906 550.625, 1072.378 573, 1077.495 573 C 1081.135 573, 1083 571.454, 1083 568.437 C 1083 564.732, 1070.539 554.197, 1053.597 543.580 C 1043.880 537.489, 1044.429 537.686, 1041.337 539.182 M 872.400 544.400 C 866.815 549.985, 868.022 557.892, 875.011 561.506 C 878.741 563.435, 881.522 563.395, 884.960 561.364 C 888.539 559.250, 891 555.026, 891 550.996 C 891 546.027, 885.468 541, 880 541 C 876.557 541, 875.187 541.613, 872.400 544.400 M 794.868 625.674 C 789.987 630.816, 789 633.006, 789.002 638.684 C 789.004 645.161, 791.582 649.888, 796.500 652.431 C 800.445 654.472, 801.582 654.500, 879.500 654.500 C 956.504 654.500, 958.601 654.449, 962.487 652.500 C 968.105 649.682, 971 644.950, 971 638.587 C 971 631.968, 968.407 627.173, 963.408 624.550 C 959.578 622.541, 957.898 622.494, 879 622.174 L 798.500 621.849 794.868 625.674 M 805 667.709 C 797.464 670.480, 794.075 683.532, 798.875 691.297 C 803.564 698.885, 800.007 698.459, 862 698.850 C 892.525 699.043, 926.164 698.881, 936.753 698.491 L 956.005 697.781 959.199 693.749 C 961.744 690.536, 962.477 688.554, 962.807 683.998 C 963.244 677.945, 962.512 675.811, 958.086 670.250 L 955.500 667 881 667.079 C 840.025 667.122, 805.825 667.406, 805 667.709 M 833.362 715.185 C 834.285 724.016, 840.384 736.214, 846.944 742.351 C 849.901 745.117, 855.666 748.851, 860.731 751.281 C 869.068 755.282, 869.837 755.458, 878.967 755.460 C 890.074 755.463, 895.943 753.784, 904.687 748.106 C 916.992 740.115, 925.627 727.209, 926.717 715.180 L 927.278 709 879.996 709 L 832.715 709 833.362 715.185 M 267.250 829.189 L 264 832.595 264 914.709 L 264 996.822 267.077 999.411 C 270.153 1001.999, 270.159 1002, 288.827 1001.943 C 321.017 1001.843, 365.286 1000.218, 369.500 998.981 C 371.700 998.335, 377.230 995.994, 381.788 993.780 C 399.451 985.198, 409 970.841, 409 952.868 C 409 938.607, 405.266 928.735, 395.743 917.816 L 389.272 910.396 391.554 907.535 C 402.022 894.407, 403.698 871.564, 395.457 854.368 C 391.200 845.487, 383.417 838.062, 373.342 833.270 C 361.575 827.673, 355.189 826.969, 310.500 826.343 L 270.500 825.782 267.250 829.189 M 494.854 826.648 C 493.399 826.904, 491.541 827.875, 490.727 828.806 C 486.087 834.113, 420 988.882, 420 994.443 C 420 995.658, 421.162 997.742, 422.582 999.076 C 425.023 1001.368, 425.828 1001.500, 437.332 1001.496 C 445.395 1001.494, 450.261 1001.060, 451.755 1000.209 C 454.519 998.634, 458.422 991.068, 466.538 971.553 L 472.753 956.607 506.127 956.879 C 524.482 957.029, 539.787 957.455, 540.138 957.826 C 540.488 958.197, 543.121 964.125, 545.987 971 C 548.854 977.875, 552.960 987.197, 555.111 991.715 C 558.764 999.384, 559.289 1000.001, 563.033 1001.009 C 565.559 1001.689, 570.827 1001.829, 577.271 1001.388 C 587.140 1000.711, 587.618 1000.569, 590.855 997.338 C 592.700 995.497, 593.986 993.430, 593.711 992.745 C 593.437 992.060, 582.636 966.525, 569.710 936 C 531.108 844.844, 523.830 828.579, 521.127 827.426 C 519.181 826.595, 498.619 825.987, 494.854 826.648 M 620.951 827.270 C 618.999 827.946, 616.409 829.219, 615.195 830.098 L 612.988 831.696 613.244 914.542 L 613.500 997.388 617 999.444 C 620.369 1001.423, 622.208 1001.513, 666.170 1001.836 C 715.944 1002.202, 727.953 1001.493, 731.462 997.981 C 733.285 996.156, 733.500 994.681, 733.500 984.005 C 733.500 973.882, 733.229 971.798, 731.715 970.285 C 730.070 968.640, 726.728 968.478, 688.965 968.218 L 648 967.936 648 900.155 L 648 832.374 644.995 829.495 C 642.217 826.833, 641.327 826.594, 633.245 826.327 C 628.135 826.159, 623.025 826.551, 620.951 827.270 M 778.159 826.889 C 758.138 827.594, 757.632 827.837, 756.524 837.276 C 756.186 840.149, 756.043 877.350, 756.205 919.944 L 756.500 997.388 759.936 999.395 C 762.437 1000.855, 765.740 1001.515, 772.068 1001.818 C 781.891 1002.287, 787.371 1000.965, 789.258 997.670 C 790.153 996.107, 790.588 986.940, 790.814 964.887 L 791.128 934.273 828.314 933.560 C 848.766 933.168, 867.427 932.375, 869.783 931.797 C 872.227 931.197, 874.516 929.905, 875.115 928.786 C 875.737 927.623, 876.029 921.993, 875.832 914.946 C 875.566 905.412, 875.165 902.731, 873.803 901.372 C 871.369 898.941, 858.291 898.106, 821.750 898.049 L 791 898 791 880.116 L 791 862.233 834.250 861.731 C 863.185 861.395, 878.757 860.840, 881.298 860.054 C 886.221 858.532, 887 856.338, 887 844 C 887 831.650, 886.222 829.462, 881.298 827.969 C 876.929 826.644, 806.159 825.904, 778.159 826.889 M 969.358 826.674 C 967.079 826.911, 964.478 827.919, 963.576 828.916 C 960.926 831.844, 923.764 919.218, 901.523 974.813 C 893.425 995.056, 893.159 996.747, 897.616 999.668 C 900.549 1001.590, 916.394 1002.622, 922.489 1001.288 C 927.735 1000.140, 928.820 998.409, 938.519 975.717 L 946.500 957.045 974.103 957.023 C 989.285 957.010, 1004.360 956.744, 1007.603 956.432 L 1013.500 955.864 1020.886 973.182 C 1024.948 982.707, 1029.558 992.799, 1031.129 995.610 C 1033.886 1000.539, 1034.172 1000.742, 1039.243 1001.351 C 1047.022 1002.286, 1056.013 1002.124, 1060.147 1000.976 C 1063.578 1000.023, 1067 996.496, 1067 993.915 C 1067 991.002, 1014.022 865.005, 1002.217 839.844 C 998.999 832.982, 996.378 828.726, 994.859 827.893 C 992.469 826.582, 977.244 825.854, 969.358 826.674 M 1288.230 826.888 C 1283.029 827.804, 1282.097 828.666, 1280.946 833.628 C 1280.452 835.757, 1280.037 873.601, 1280.024 917.724 L 1280 997.949 1283.075 999.539 C 1287.277 1001.712, 1298.430 1002.503, 1305.001 1001.093 C 1314.870 998.977, 1314.017 1005.704, 1313.878 931.095 C 1313.811 895.018, 1313.474 857.672, 1313.128 848.104 C 1312.512 831.028, 1312.454 830.675, 1310 828.890 C 1307.118 826.793, 1295.061 825.684, 1288.230 826.888 M 1358.500 827.344 C 1356.850 828.105, 1354.710 829.614, 1353.744 830.699 C 1352.095 832.550, 1352.004 837.690, 1352.244 914.977 L 1352.500 997.284 1355.323 999.392 C 1357.809 1001.248, 1359.512 1001.500, 1369.551 1001.500 C 1380.679 1001.500, 1381.022 1001.433, 1383.727 998.729 L 1386.500 995.957 1386.801 963.479 L 1387.103 931 1424.051 931 L 1461 931 1461.063 955.750 C 1461.143 987.137, 1461.955 996.398, 1464.884 999.331 C 1466.794 1001.243, 1468.355 1001.540, 1478.064 1001.840 C 1491.581 1002.256, 1493.309 1001.451, 1494.909 993.987 C 1495.644 990.560, 1496 963.372, 1496 910.625 L 1496 832.349 1493.660 830.150 C 1492.373 828.941, 1489.789 827.513, 1487.917 826.976 C 1483.317 825.657, 1472.298 825.840, 1468.012 827.306 C 1461.903 829.397, 1461.654 830.800, 1461.181 865.750 L 1460.758 897 1423.879 897 L 1387 897 1387 864.750 L 1387 832.500 1383.286 829.537 C 1379.882 826.820, 1378.821 826.548, 1370.536 826.268 C 1364.377 826.059, 1360.545 826.402, 1358.500 827.344 M 1142.432 829.443 C 1125.927 833.710, 1113.644 841.308, 1099.899 855.751 C 1083.858 872.608, 1075.934 895.235, 1077.260 920.395 C 1079.447 961.868, 1107.224 995.159, 1145.838 1002.588 C 1155.519 1004.451, 1173.758 1004.383, 1183.964 1002.447 C 1188.466 1001.593, 1195.796 999.550, 1200.252 997.907 L 1208.355 994.919 1213.428 999.814 C 1220.026 1006.182, 1222.848 1008, 1226.133 1008 C 1229.388 1008, 1237.173 1002.066, 1242.591 995.454 C 1248.283 988.508, 1248.006 985.087, 1241.109 977.126 L 1235.764 970.956 1238.284 967.147 C 1242.558 960.689, 1247.705 949.770, 1250.158 941.957 C 1252.266 935.246, 1252.498 932.648, 1252.477 916 C 1252.450 894.274, 1250.980 887.398, 1243.207 872.653 C 1233.607 854.441, 1212.711 836.799, 1193.500 830.685 C 1179.942 826.371, 1156.518 825.801, 1142.432 829.443 M 299 879.602 L 299 897.321 324.250 896.660 C 338.137 896.297, 351.300 895.508, 353.500 894.907 C 360.628 892.959, 366 886.057, 366 878.848 C 366 873.942, 362.351 867.382, 358.179 864.788 C 354.612 862.570, 353.655 862.491, 326.750 862.192 L 299 861.884 299 879.602 M 1150.227 863.383 C 1132.021 868.013, 1117.890 882.651, 1114.105 900.799 C 1112.519 908.403, 1112.730 925.542, 1114.492 932.307 C 1118.995 949.597, 1133.833 964.551, 1149.799 967.891 C 1155.930 969.174, 1180 969.400, 1180 968.176 C 1180 967.722, 1177.471 964.460, 1174.381 960.926 C 1171.291 957.391, 1168.126 953.016, 1167.347 951.202 C 1165.606 947.142, 1166.500 945.678, 1176.741 935.809 C 1187.423 925.514, 1188.590 925.624, 1202.366 938.232 L 1210.782 945.935 1212.966 940.857 C 1217.852 929.500, 1219.375 912.700, 1216.516 901.721 C 1211.926 884.102, 1200.069 870.122, 1185.233 864.839 C 1177.856 862.212, 1158.067 861.389, 1150.227 863.383 M 979.182 879 C 978.652 880.375, 974.840 889.600, 970.712 899.500 C 966.584 909.400, 962.905 918.513, 962.536 919.750 L 961.865 922 979.766 922 C 989.611 922, 997.926 921.740, 998.244 921.423 C 998.795 920.872, 994.458 909.893, 984.646 887 C 980.536 877.409, 980.063 876.717, 979.182 879 M 504.613 881.620 C 501.546 887.942, 488 920.141, 488 921.109 C 488 921.599, 496.100 922, 506 922 C 520.894 922, 524 921.755, 524 920.578 C 524 918.971, 514.527 895.218, 509.683 884.675 L 506.495 877.739 504.613 881.620 M 299 949.661 L 299 968.321 325.250 967.683 C 360.108 966.835, 366.667 965.459, 371.839 957.913 C 376.669 950.865, 372.956 939.820, 363.990 934.568 C 360.186 932.340, 344.114 931.172, 315.750 931.064 L 299 931 299 949.661 M 289.750 1042.014 C 288.210 1042.969, 288 1044.891, 288 1058.050 L 288 1073 290.750 1073.093 C 303.307 1073.516, 309.664 1070.797, 312.461 1063.807 C 315.480 1056.261, 312.433 1046.827, 305.882 1043.439 C 301.948 1041.405, 292.132 1040.538, 289.750 1042.014 M 357.750 1042.080 C 356.207 1042.979, 356 1044.866, 356 1058.050 L 356 1073 363.066 1073 C 370.171 1073, 374.559 1071.713, 373.469 1069.950 C 373.146 1069.427, 369.984 1069, 366.441 1069 L 360 1069 360 1064 L 360 1059 365.441 1059 C 368.467 1059, 371.198 1058.489, 371.594 1057.848 C 372.680 1056.091, 369.058 1054, 364.926 1054 C 361.942 1054, 361.118 1053.568, 360.630 1051.750 C 359.247 1046.589, 359.686 1046, 364.918 1046 C 370.662 1046, 373 1045.282, 373 1043.518 C 373 1041.182, 361.202 1040.070, 357.750 1042.080 M 591.262 1042.637 C 590.266 1045.072, 590.270 1071.604, 591.267 1072.600 C 592.901 1074.234, 594.158 1070.951, 594.714 1063.601 C 595.033 1059.386, 595.632 1055.728, 596.045 1055.472 C 596.459 1055.216, 598.842 1058.287, 601.340 1062.296 C 606.169 1070.043, 609.560 1073.773, 610.721 1072.613 C 611.675 1071.658, 612.406 1046.752, 611.576 1043.447 C 611.033 1041.284, 610.661 1041.036, 609.459 1042.034 C 608.417 1042.899, 607.996 1045.423, 607.985 1050.872 C 607.962 1062.382, 607.143 1062.528, 600.615 1052.183 C 593.892 1041.527, 592.357 1039.960, 591.262 1042.637 M 656.874 1042.163 C 654.472 1044.137, 653.929 1048.903, 654.655 1061.614 L 655.305 1073 662.402 1072.985 C 666.306 1072.976, 670.120 1072.577, 670.878 1072.096 C 673.538 1070.412, 670.831 1069, 664.941 1069 L 659 1069 659 1064 L 659 1059 664.500 1059 C 669.291 1059, 670 1058.748, 670 1057.045 C 670 1055.169, 668.608 1054.647, 661 1053.675 C 660.034 1053.552, 659.389 1052.150, 659.190 1049.742 L 658.879 1046 664.190 1045.985 C 674.508 1045.955, 674.650 1042.210, 664.366 1041.328 C 660.304 1040.980, 658 1041.237, 656.874 1042.163 M 714.099 1042.815 C 712.725 1045.382, 712.655 1069.928, 714.015 1072 C 714.891 1073.333, 715.109 1073.333, 715.984 1072 C 716.525 1071.175, 717.260 1068.345, 717.618 1065.712 L 718.268 1060.924 721.507 1065.735 C 723.289 1068.380, 725.473 1071.148, 726.361 1071.885 C 729.488 1074.480, 729.366 1070.311, 726.148 1064.609 L 723.092 1059.194 725.575 1058.571 C 728.964 1057.720, 731.718 1051.931, 730.440 1048.343 C 729.105 1044.595, 724.961 1041.863, 719.713 1041.271 C 715.885 1040.840, 715.030 1041.075, 714.099 1042.815 M 829.357 1041.992 C 826.420 1043.177, 824 1046.886, 824 1050.202 C 824 1051.719, 823.275 1054.771, 822.390 1056.984 C 820.329 1062.135, 821.180 1066.870, 824.762 1070.178 C 828.816 1073.922, 830.689 1074.231, 835.751 1071.992 C 839.840 1070.183, 840.487 1070.131, 841.986 1071.487 C 843.884 1073.205, 846.590 1073.472, 847.482 1072.029 C 847.812 1071.496, 847.377 1069.697, 846.516 1068.032 C 845.086 1065.265, 845.094 1064.787, 846.611 1062.471 C 848.731 1059.235, 847.750 1058.278, 843.828 1059.759 C 840.337 1061.077, 838.716 1060.483, 835.024 1056.536 C 833.241 1054.631, 833.035 1054.076, 834.286 1054.556 C 839.076 1056.394, 840.571 1049.021, 836.411 1044.077 C 833.688 1040.840, 832.835 1040.588, 829.357 1041.992 M 940.462 1042.404 C 938.731 1043.670, 938.549 1045.089, 938.619 1056.723 C 938.663 1063.961, 939.173 1070.487, 939.779 1071.569 C 940.792 1073.379, 940.926 1073.323, 941.930 1070.685 C 942.518 1069.137, 943 1066.604, 943 1065.057 C 943 1061.831, 944.263 1060.569, 948.500 1059.564 C 953.153 1058.459, 956 1055.227, 956 1051.048 C 956 1046.275, 953.765 1043.306, 949.221 1042.044 C 944.273 1040.670, 942.747 1040.733, 940.462 1042.404 M 998.099 1042.815 C 996.725 1045.382, 996.655 1069.928, 998.015 1072 C 998.891 1073.333, 999.109 1073.333, 999.984 1072 C 1000.525 1071.175, 1001.260 1068.345, 1001.618 1065.712 L 1002.268 1060.924 1005.507 1065.735 C 1007.289 1068.380, 1009.473 1071.148, 1010.361 1071.885 C 1013.464 1074.460, 1013.374 1070.325, 1010.206 1064.711 L 1007.207 1059.397 1009.997 1058.161 C 1011.532 1057.482, 1013.358 1055.551, 1014.054 1053.869 C 1016.556 1047.830, 1011.932 1042.198, 1003.713 1041.271 C 999.885 1040.840, 999.030 1041.075, 998.099 1042.815 M 1199.865 1041.667 C 1197.680 1042.249, 1196.997 1046.249, 1197.014 1058.375 C 1197.029 1069.577, 1197.609 1073, 1199.492 1073 C 1200.825 1073, 1202 1068.697, 1202 1063.816 C 1202 1060.028, 1203.186 1060.823, 1207.429 1067.456 C 1209.302 1070.384, 1211.325 1073.083, 1211.924 1073.453 C 1214.334 1074.942, 1214.174 1070.505, 1211.631 1065.321 C 1208.947 1059.847, 1208.920 1058, 1211.524 1058 C 1214.576 1058, 1216.184 1050.080, 1213.970 1045.945 C 1211.948 1042.166, 1205.424 1040.188, 1199.865 1041.667 M 1397.250 1041.662 C 1396.323 1042.036, 1396 1046.314, 1396 1058.227 L 1396 1074.287 1403.228 1073.615 C 1414.111 1072.604, 1415.436 1070.032, 1405.499 1069.208 L 1400 1068.752 1400 1063.928 L 1400 1059.105 1405.250 1058.802 C 1412.208 1058.402, 1412.567 1055.897, 1405.843 1054.668 C 1402.311 1054.023, 1401.046 1053.296, 1400.606 1051.659 C 1399.249 1046.598, 1399.704 1046, 1404.918 1046 C 1410.679 1046, 1413 1045.282, 1413 1043.500 C 1413 1042.793, 1412.288 1041.941, 1411.418 1041.607 C 1409.555 1040.892, 1399.057 1040.933, 1397.250 1041.662 M 1455.865 1041.667 C 1453.680 1042.249, 1452.997 1046.249, 1453.014 1058.375 C 1453.029 1069.577, 1453.609 1073, 1455.492 1073 C 1456.825 1073, 1458 1068.697, 1458 1063.816 C 1458 1060.028, 1459.186 1060.823, 1463.429 1067.456 C 1465.302 1070.384, 1467.325 1073.083, 1467.924 1073.453 C 1470.334 1074.942, 1470.174 1070.505, 1467.631 1065.321 C 1464.947 1059.847, 1464.920 1058, 1467.524 1058 C 1470.576 1058, 1472.184 1050.080, 1469.970 1045.945 C 1467.948 1042.166, 1461.424 1040.188, 1455.865 1041.667 M 418 1043.245 C 416.625 1043.967, 414.897 1045.816, 414.160 1047.354 C 412.072 1051.709, 414.177 1055.518, 420.708 1059.204 C 425.335 1061.816, 426.065 1062.627, 425.804 1064.868 C 425.358 1068.707, 422.372 1068.753, 418.481 1064.981 C 412.765 1059.441, 411.218 1064.289, 416.799 1070.250 C 424.032 1077.975, 435.491 1067.856, 429.383 1059.137 C 428.494 1057.868, 425.794 1055.983, 423.383 1054.950 C 420.021 1053.509, 419.004 1052.539, 419.015 1050.786 C 419.052 1045.362, 423.426 1044.668, 426.642 1049.576 C 427.515 1050.909, 428.853 1052, 429.615 1052 C 431.688 1052, 431.330 1046.608, 429.124 1044.612 C 426.589 1042.318, 421.057 1041.638, 418 1043.245 M 474.048 1043.442 C 473.002 1044.703, 472.829 1047.956, 473.277 1058.009 C 474.181 1078.336, 476.467 1077.925, 477.572 1057.237 C 478.067 1047.966, 477.904 1045.113, 476.797 1043.660 C 475.511 1041.971, 475.283 1041.953, 474.048 1043.442 M 530 1042.648 C 527.620 1043.603, 522.951 1048.252, 521.411 1051.200 C 519.241 1055.354, 519.626 1062.157, 522.250 1066.001 C 526.949 1072.885, 536.622 1075.072, 543.102 1070.715 C 546.281 1068.578, 546.519 1068.030, 546.798 1062.215 L 547.095 1056 540.464 1056 C 533.162 1056, 531.911 1057.714, 538.068 1059.282 C 542.557 1060.426, 543.383 1061.339, 542.633 1064.327 C 541.349 1069.443, 533.146 1069.807, 527.976 1064.978 C 521.524 1058.950, 525.728 1047, 534.301 1047 C 536.201 1047, 539.406 1047.689, 541.422 1048.532 C 543.438 1049.374, 545.518 1049.798, 546.044 1049.473 C 547.708 1048.444, 547.081 1046.099, 544.730 1044.559 C 542.271 1042.948, 532.433 1041.671, 530 1042.648 M 1063.379 1043.437 C 1059.836 1044.979, 1055.473 1050.228, 1054.503 1054.116 C 1053.497 1058.147, 1055.827 1065.027, 1059.411 1068.611 C 1065.427 1074.627, 1074.858 1074.378, 1081.201 1068.035 C 1084.751 1064.484, 1085 1063.844, 1085 1058.266 C 1085 1053.724, 1084.457 1051.483, 1082.730 1048.898 C 1078.592 1042.703, 1070.386 1040.387, 1063.379 1043.437 M 1137.578 1043.485 C 1135.421 1044.254, 1132.285 1046.253, 1130.610 1047.929 C 1127.933 1050.605, 1127.574 1051.633, 1127.643 1056.406 C 1127.779 1065.822, 1133.059 1071.952, 1141.676 1072.695 C 1150.150 1073.426, 1155 1068.764, 1155 1059.889 L 1155 1055.909 1148.250 1056.204 C 1140.787 1056.531, 1139.065 1058.324, 1145.750 1058.807 C 1149.717 1059.095, 1150 1059.311, 1150 1062.057 C 1150 1065.210, 1146.980 1069, 1144.468 1069 C 1141.515 1069, 1136.316 1066.217, 1134.168 1063.486 C 1130.386 1058.678, 1131.755 1051.212, 1136.907 1048.548 C 1140.505 1046.687, 1143.492 1046.604, 1149.454 1048.199 C 1151.919 1048.858, 1154.186 1049.148, 1154.491 1048.842 C 1155.659 1047.674, 1153.711 1045.091, 1150.522 1043.577 C 1146.484 1041.661, 1142.771 1041.635, 1137.578 1043.485 M 1265.243 1043.250 C 1262.433 1046.758, 1254 1068.007, 1254 1071.580 C 1254 1074.129, 1256.451 1073.051, 1258.759 1069.488 C 1260.958 1066.093, 1261.192 1066, 1267.525 1066 C 1273.962 1066, 1274.050 1066.038, 1275.680 1069.456 C 1277.494 1073.258, 1279.785 1074.724, 1280.599 1072.603 C 1281.110 1071.270, 1276.780 1059.215, 1271.672 1047.750 C 1269.159 1042.109, 1267.236 1040.763, 1265.243 1043.250 M 1347.673 1045.231 C 1346.322 1047.029, 1343.318 1052.301, 1340.999 1056.946 L 1336.781 1065.391 1331.261 1054.615 C 1322.769 1038.037, 1320.643 1038.834, 1321.325 1058.337 C 1321.733 1069.995, 1322.776 1074.789, 1324.351 1072.241 C 1324.668 1071.728, 1325.236 1067.612, 1325.613 1063.094 L 1326.298 1054.879 1330.936 1063.690 C 1333.488 1068.535, 1336.209 1072.500, 1336.983 1072.500 C 1337.758 1072.500, 1340.251 1069.010, 1342.523 1064.744 C 1344.796 1060.478, 1346.957 1057.291, 1347.327 1057.661 C 1347.697 1058.031, 1348 1060.988, 1348 1064.232 C 1348 1070.314, 1349.382 1074.500, 1351.050 1073.469 C 1352.284 1072.706, 1352.298 1043.302, 1351.065 1042.540 C 1350.551 1042.223, 1349.025 1043.433, 1347.673 1045.231 M 292 1057.500 L 292 1069 296.050 1069 C 301.245 1069, 305.563 1066.746, 307.483 1063.033 C 311.895 1054.501, 306.189 1046, 296.050 1046 L 292 1046 292 1057.500 M 718.667 1046.667 C 717.416 1047.917, 717.964 1054.772, 719.357 1055.307 C 721.559 1056.152, 725.474 1053.635, 725.830 1051.144 C 726.316 1047.754, 720.939 1044.394, 718.667 1046.667 M 829.473 1047.044 C 829.118 1047.618, 829.611 1049.283, 830.568 1050.744 C 832.305 1053.396, 832.309 1053.397, 833.122 1051.199 C 834.531 1047.390, 831.436 1043.867, 829.473 1047.044 M 943.667 1046.667 C 943.300 1047.033, 943 1048.818, 943 1050.631 C 943 1056.201, 948.276 1057.089, 951.011 1051.980 C 951.823 1050.463, 951.610 1049.610, 950.023 1048.023 C 948.025 1046.025, 944.962 1045.371, 943.667 1046.667 M 1002.667 1046.667 C 1001.416 1047.917, 1001.964 1054.772, 1003.357 1055.307 C 1005.559 1056.152, 1009.474 1053.635, 1009.830 1051.144 C 1010.316 1047.754, 1004.939 1044.394, 1002.667 1046.667 M 1202 1050.393 C 1202 1053.079, 1202.506 1054.980, 1203.302 1055.286 C 1205.552 1056.149, 1211 1053.259, 1211 1051.203 C 1211 1048.577, 1207.866 1046, 1204.671 1046 C 1202.182 1046, 1202 1046.299, 1202 1050.393 M 1458 1050.393 C 1458 1053.079, 1458.506 1054.980, 1459.302 1055.286 C 1461.552 1056.149, 1467 1053.259, 1467 1051.203 C 1467 1048.577, 1463.866 1046, 1460.671 1046 C 1458.182 1046, 1458 1046.299, 1458 1050.393 M 1062.768 1049.695 C 1057.536 1055.205, 1058.410 1062.308, 1064.889 1066.921 C 1068.522 1069.508, 1070.062 1069.519, 1075.006 1066.997 C 1079.906 1064.497, 1081.375 1061.834, 1080.687 1056.703 C 1079.927 1051.037, 1076.419 1047.840, 1070.339 1047.271 C 1066.014 1046.866, 1065.210 1047.124, 1062.768 1049.695 M 1265.093 1054.750 C 1264.421 1056.813, 1263.637 1059.063, 1263.352 1059.750 C 1262.987 1060.629, 1264.028 1061, 1266.858 1061 C 1269.071 1061, 1271.087 1060.662, 1271.337 1060.250 C 1271.904 1059.316, 1268.047 1051, 1267.047 1051 C 1266.645 1051, 1265.766 1052.688, 1265.093 1054.750 M 826.484 1061.049 C 825.046 1065.582, 831.647 1070.782, 834.817 1067.612 C 836.275 1066.154, 836.121 1065.720, 833.009 1062.509 C 829.125 1058.502, 827.414 1058.119, 826.484 1061.049" stroke="none" fill="#fffcfc" fill-rule="evenodd"/><path d="" stroke="none" fill="#fcfcfc" fill-rule="evenodd"/></svg>