<?xml version="1.0" encoding="UTF-8"?>
<svg xmlns="http://www.w3.org/2000/svg" version="1.1" width="831" height="344" style="background-color:transparent;">
  <path d="M0 0 C274.23 0 548.46 0 831 0 C831 113.52 831 227.04 831 344 C556.77 344 282.54 344 0 344 C0 230.48 0 116.96 0 0 Z " fill="#363636" transform="translate(0,0)"/>
  <path d="M0 0 C9.97067289 7.45332478 17.3697391 18.59719329 20 30.875 C21.34042356 46.74290017 19.94568963 59.05400462 10.0390625 71.9375 C8.79524487 73.79703217 8.79524487 73.79703217 9.27539062 75.79394531 C11.33794292 81.7175288 17.90079611 87.43443511 23 90.875 C26.02489911 91.4184429 28.2052662 91.19849374 31.21887207 90.73921204 C34.94970493 90.92136914 36.0677251 92.19693831 38.72851562 94.76635742 C39.59734375 95.59404633 40.46617187 96.42173523 41.36132812 97.27450562 C42.23208984 98.13266876 43.10285156 98.99083191 44 99.875 C44.79599609 100.64413727 45.59199219 101.41327454 46.41210938 102.20571899 C48.84553857 104.57337899 51.25385247 106.96415573 53.65625 109.36328125 C54.52519897 110.22890182 55.39414795 111.0945224 56.28942871 111.9863739 C58.1057116 113.79763656 59.92068146 115.61021679 61.734375 117.42407227 C64.51542464 120.20291239 67.30440877 122.97362647 70.09375 125.74414062 C71.8650716 127.51253189 73.6359221 129.28139519 75.40625 131.05078125 C76.23950806 131.87685379 77.07276611 132.70292633 77.93127441 133.55403137 C78.69967651 134.3255101 79.46807861 135.09698883 80.25976562 135.8918457 C80.93575806 136.56641312 81.61175049 137.24098053 82.30822754 137.93598938 C85.02830161 141.05357915 85.98392972 143.02327516 86.0625 147.1875 C84.68728806 151.96029438 82.32795229 155.32321451 78 157.875 C73.82165423 158.34230261 71.71405567 158.35682691 68.18409729 155.97489929 C67.27586716 155.08430313 66.36763702 154.19370697 65.43188477 153.27612305 C64.92367691 152.7866066 64.41546906 152.29709015 63.89186096 151.79273987 C62.22322425 150.17514715 60.58177734 148.53293485 58.94140625 146.88671875 C57.78628401 145.74648193 56.630424 144.60699206 55.47386169 143.46821594 C53.05546445 141.07816329 50.65117323 138.67490164 48.25512695 136.26245117 C45.19273603 133.18259742 42.09141782 130.14563095 38.97718906 127.11831951 C36.57890583 124.77554615 34.20662705 122.40771208 31.8408947 120.03211403 C30.70806946 118.90199724 29.56657619 117.78049703 28.41623116 116.66821861 C19.3817408 107.89824834 19.3817408 107.89824834 18.42007446 102.80136108 C18.48706055 99.85766602 18.48706055 99.85766602 18.89408875 97.25099182 C19.03251815 94.14549443 18.0591612 93.02773041 16.078125 90.703125 C14.83000606 89.48122705 13.55290254 88.28830584 12.25 87.125 C11.61578125 86.49851562 10.9815625 85.87203125 10.328125 85.2265625 C7.83406566 82.82329105 7.83406566 82.82329105 5 80.875 C1.49006073 81.30942929 -1.07874951 82.97184548 -4.0625 84.8125 C-4.91972656 85.33714844 -5.77695313 85.86179687 -6.66015625 86.40234375 C-8.45711069 87.53331508 -10.23335884 88.69723923 -12 89.875 C-24.60949732 93.92753765 -39.77476172 93.57298689 -51.953125 88.484375 C-65.66413768 81.24214779 -75.08614913 69.36667769 -79.8125 54.75 C-83.22188957 40.89690558 -81.17096122 27.89293213 -74.125 15.5625 C-66.00992786 2.93681704 -55.35013187 -5.16338599 -40.60546875 -8.69921875 C-26.1881285 -11.05527585 -12.13865828 -8.12987084 0 0 Z " fill="#2D2D2D" transform="translate(167,112.125)"/>
  <path d="M0 0 C7.59 0 15.18 0 23 0 C23 12.87 23 25.74 23 39 C33.23 39 43.46 39 54 39 C54 26.13 54 13.26 54 0 C61.59 0 69.18 0 77 0 C77.02254897 12.89072567 77.04091389 25.78143834 77.05181217 38.67217922 C77.05704151 44.65719266 77.06414008 50.64219196 77.07543945 56.62719727 C77.08626653 62.39783429 77.09227645 68.16845768 77.09487724 73.93910408 C77.09673182 76.14602943 77.10035304 78.352954 77.10573006 80.55987358 C77.1129381 83.63946041 77.11399104 86.71899014 77.11352539 89.79858398 C77.11712067 90.72071182 77.12071594 91.64283966 77.12442017 92.59291077 C77.11405216 98.88594784 77.11405216 98.88594784 76 100 C74.53521494 100.09883336 73.06577042 100.13079289 71.59765625 100.1328125 C70.70755859 100.13410156 69.81746094 100.13539063 68.90039062 100.13671875 C67.49563477 100.13091797 67.49563477 100.13091797 66.0625 100.125 C65.12986328 100.12886719 64.19722656 100.13273437 63.23632812 100.13671875 C62.34494141 100.13542969 61.45355469 100.13414062 60.53515625 100.1328125 C59.714104 100.13168457 58.89305176 100.13055664 58.04711914 100.12939453 C56 100 56 100 54 99 C54 85.47 54 71.94 54 58 C43.77 58 33.54 58 23 58 C23 71.53 23 85.06 23 99 C19.61423706 99.67715259 17.14809317 100.12730283 13.828125 100.1328125 C12.70857422 100.13474609 12.70857422 100.13474609 11.56640625 100.13671875 C10.41978516 100.13091797 10.41978516 100.13091797 9.25 100.125 C8.47011719 100.12886719 7.69023437 100.13273437 6.88671875 100.13671875 C1.12670133 100.12670133 1.12670133 100.12670133 0 99 C-0.09532328 95.92545239 -0.1255138 92.87340842 -0.11352539 89.79858398 C-0.11367142 88.83283447 -0.11381744 87.86708496 -0.1139679 86.87207031 C-0.11326834 83.66338901 -0.10547397 80.45476497 -0.09765625 77.24609375 C-0.09579222 75.02791882 -0.09436825 72.80974348 -0.09336853 70.59156799 C-0.08954216 64.74059929 -0.07971086 58.88965523 -0.06866455 53.03869629 C-0.05845299 47.07332696 -0.05387146 41.10795367 -0.04882812 35.14257812 C-0.03808869 23.42837282 -0.02049093 11.71419231 0 0 Z " fill="#FDFDFD" transform="translate(289,138)"/>
  <path d="M0 0 C0.94912262 -0.00807175 1.89824524 -0.01614349 2.87612915 -0.02445984 C4.89542808 -0.03832834 6.91475072 -0.04903804 8.93408203 -0.05688477 C11.99168216 -0.07395424 15.04816017 -0.11779697 18.10546875 -0.16210938 C41.80934219 -0.35217257 41.80934219 -0.35217257 51.16796875 8.53515625 C57.62496111 15.88567497 60.04515661 23.37901137 59.9765625 33.05078125 C59.97237305 33.85032227 59.96818359 34.64986328 59.96386719 35.47363281 C59.78875742 44.60542068 57.72047291 52.0915778 51.1328125 58.796875 C44.73683998 64.62593178 37.6522966 68.39205198 28.8984375 68.3359375 C28.09631836 68.33343994 27.29419922 68.33094238 26.46777344 68.32836914 C25.46004883 68.31926514 24.45232422 68.31016113 23.4140625 68.30078125 C20.1965625 68.28015625 16.9790625 68.25953125 13.6640625 68.23828125 C13.6640625 78.46828125 13.6640625 88.69828125 13.6640625 99.23828125 C9.83218739 100.51557295 6.21697933 100.38338411 2.2265625 100.36328125 C1.46279297 100.36714844 0.69902344 100.37101562 -0.08789062 100.375 C-0.82845703 100.37371094 -1.56902344 100.37242187 -2.33203125 100.37109375 C-3.00419678 100.36996582 -3.6763623 100.36883789 -4.36889648 100.36767578 C-6.45884577 100.23019618 -8.31402758 99.76815429 -10.3359375 99.23828125 C-10.35905871 86.47794255 -10.37685145 73.7176088 -10.38774967 60.95725346 C-10.39297899 55.0327741 -10.40007751 49.10830903 -10.41137695 43.18383789 C-10.42220411 37.47155554 -10.42821397 31.75928697 -10.43081474 26.04699516 C-10.4326693 23.86239848 -10.4362905 21.6778026 -10.44166756 19.49321175 C-10.44887571 16.44475776 -10.44992854 13.39636146 -10.44946289 10.34790039 C-10.45305817 9.43512329 -10.45665344 8.52234619 -10.46035767 7.58190918 C-10.44565919 -1.24961076 -8.00032367 0.06404345 0 0 Z " fill="#FAFAFA" transform="translate(567.3359375,137.76171875)"/>
  <path d="M0 0 C7.59761262 4.45946828 11.8276237 13.39625886 14.3046875 21.56640625 C16.74346117 33.60956389 15.83212992 46.56117945 9.64453125 57.3671875 C4.8485912 64.181794 -1.55758167 70.48212092 -10 72 C-19.25860733 72.7374112 -27.92232559 73.1976597 -36 68 C-36.94746094 67.45666016 -36.94746094 67.45666016 -37.9140625 66.90234375 C-45.9367184 61.86684696 -48.89584427 53.88748296 -51 45 C-53.02896142 35.224095 -53.06269006 25.19358741 -49 16 C-48.7215625 15.31292969 -48.443125 14.62585938 -48.15625 13.91796875 C-44.45375448 5.5713948 -38.38313289 0.38970156 -30 -3 C-20.28304816 -6.23898395 -9.07624158 -4.14790021 0 0 Z " fill="#FBFBFB" transform="translate(741,167)"/>
  <path d="M0 0 C7.81541365 8.2496033 9.42467695 16.07107102 9.375 27 C9.37886719 27.85851562 9.38273438 28.71703125 9.38671875 29.6015625 C9.38542969 30.4265625 9.38414062 31.2515625 9.3828125 32.1015625 C9.38168457 32.85002441 9.38055664 33.59848633 9.37939453 34.36962891 C9.25 36.375 9.25 36.375 8.25 39.375 C-4.29 39.375 -16.83 39.375 -29.75 39.375 C-27.56802103 47.66337803 -27.56802103 47.66337803 -24.6875 50.9375 C-17.91671028 54.25086518 -10.6874631 52.34061454 -3.75 50.375 C-1.75398694 50.0185691 0.244845 49.67577325 2.25 49.375 C6.59242429 53.71742429 6.9944669 57.51051546 7.25 63.375 C5.75565577 64.17729137 4.25413528 64.96621867 2.75 65.75 C1.9146875 66.19085938 1.079375 66.63171875 0.21875 67.0859375 C-9.7398104 71.41004925 -22.1596577 72.12127483 -32.73828125 69.6875 C-34.956898 68.76786611 -36.78495169 67.74967196 -38.75 66.375 C-39.3790625 65.97410156 -40.008125 65.57320313 -40.65625 65.16015625 C-47.57604554 60.10225485 -50.94313036 51.31415783 -52.46484375 43.0703125 C-53.87458144 29.74539464 -53.60605377 16.53666423 -45.375 5.3125 C-33.39377837 -8.60199731 -15.10855714 -8.92778377 0 0 Z " fill="#FCFCFC" transform="translate(531.75,168.625)"/>
  <path d="M0 0 C9.97067289 7.45332478 17.3697391 18.59719329 20 30.875 C21.34042356 46.74290017 19.94568963 59.05400462 10.0390625 71.9375 C8.79524487 73.79703217 8.79524487 73.79703217 9.27539062 75.79394531 C11.33794292 81.7175288 17.90079611 87.43443511 23 90.875 C26.02489911 91.4184429 28.2052662 91.19849374 31.21887207 90.73921204 C34.94970493 90.92136914 36.0677251 92.19693831 38.72851562 94.76635742 C39.59734375 95.59404633 40.46617187 96.42173523 41.36132812 97.27450562 C42.23208984 98.13266876 43.10285156 98.99083191 44 99.875 C44.79599609 100.64413727 45.59199219 101.41327454 46.41210938 102.20571899 C48.84553857 104.57337899 51.25385247 106.96415573 53.65625 109.36328125 C54.52519897 110.22890182 55.39414795 111.0945224 56.28942871 111.9863739 C58.1057116 113.79763656 59.92068146 115.61021679 61.734375 117.42407227 C64.51542464 120.20291239 67.30440877 122.97362647 70.09375 125.74414062 C71.8650716 127.51253189 73.6359221 129.28139519 75.40625 131.05078125 C76.23950806 131.87685379 77.07276611 132.70292633 77.93127441 133.55403137 C78.69967651 134.3255101 79.46807861 135.09698883 80.25976562 135.8918457 C80.93575806 136.56641312 81.61175049 137.24098053 82.30822754 137.93598938 C85.02830161 141.05357915 85.98392972 143.02327516 86.0625 147.1875 C84.68728806 151.96029438 82.32795229 155.32321451 78 157.875 C73.82165423 158.34230261 71.71405567 158.35682691 68.18409729 155.97489929 C67.27586716 155.08430313 66.36763702 154.19370697 65.43188477 153.27612305 C64.92367691 152.7866066 64.41546906 152.29709015 63.89186096 151.79273987 C62.22322425 150.17514715 60.58177734 148.53293485 58.94140625 146.88671875 C57.78628401 145.74648193 56.630424 144.60699206 55.47386169 143.46821594 C53.05546445 141.07816329 50.65117323 138.67490164 48.25512695 136.26245117 C45.19273603 133.18259742 42.09141782 130.14563095 38.97718906 127.11831951 C36.57890583 124.77554615 34.20662705 122.40771208 31.8408947 120.03211403 C30.70806946 118.90199724 29.56657619 117.78049703 28.41623116 116.66821861 C19.3817408 107.89824834 19.3817408 107.89824834 18.42007446 102.80136108 C18.48706055 99.85766602 18.48706055 99.85766602 18.89408875 97.25099182 C19.03251815 94.14549443 18.0591612 93.02773041 16.078125 90.703125 C14.83000606 89.48122705 13.55290254 88.28830584 12.25 87.125 C11.61578125 86.49851562 10.9815625 85.87203125 10.328125 85.2265625 C7.83406566 82.82329105 7.83406566 82.82329105 5 80.875 C1.49006073 81.30942929 -1.07874951 82.97184548 -4.0625 84.8125 C-4.91972656 85.33714844 -5.77695313 85.86179687 -6.66015625 86.40234375 C-8.45711069 87.53331508 -10.23335884 88.69723923 -12 89.875 C-24.60949732 93.92753765 -39.77476172 93.57298689 -51.953125 88.484375 C-65.66413768 81.24214779 -75.08614913 69.36667769 -79.8125 54.75 C-83.22188957 40.89690558 -81.17096122 27.89293213 -74.125 15.5625 C-66.00992786 2.93681704 -55.35013187 -5.16338599 -40.60546875 -8.69921875 C-26.1881285 -11.05527585 -12.13865828 -8.12987084 0 0 Z M-67.5 14.83203125 C-69.81039712 17.97874399 -71.54860835 21.25683884 -73 24.875 C-73.35835938 25.74382812 -73.71671875 26.61265625 -74.0859375 27.5078125 C-75.28706759 31.93248832 -75.34229543 36.05991523 -75.3125 40.625 C-75.30686035 41.51807861 -75.3012207 42.41115723 -75.29541016 43.33129883 C-75.07453178 55.3013759 -71.63943365 63.65716289 -63.5625 72.5625 C-62.2940625 73.7071875 -62.2940625 73.7071875 -61 74.875 C-60.48824219 75.36742187 -59.97648437 75.85984375 -59.44921875 76.3671875 C-49.72268811 85.3558434 -37.90506609 87.40728122 -25.09375 87.1171875 C-13.66446398 86.59532589 -3.27451695 80.08743184 4.44140625 71.81640625 C11.69180957 62.78520211 15.59053667 53.14523702 15.5 41.5625 C15.49645508 40.7372583 15.49291016 39.9120166 15.48925781 39.06176758 C15.23016239 29.45176814 11.75647838 21.48840689 6 13.875 C5.46375 13.070625 4.9275 12.26625 4.375 11.4375 C-4.27678556 2.10267874 -15.79346144 -3.17183532 -28.4387207 -3.71679688 C-44.88732921 -3.92494899 -56.94519582 2.20047161 -67.5 14.83203125 Z " fill="#F6F6F6" transform="translate(167,112.125)"/>
  <path d="M0 0 C6.94222111 0.24793647 10.98096762 2.17711372 16 7 C18 9.875 18 9.875 19 12 C19.3403125 11.46890625 19.680625 10.9378125 20.03125 10.390625 C23.57460354 5.2263757 26.84315545 1.70180386 33 0 C37.83955133 -0.50290518 42.3108175 -0.32286571 47 1 C46.67021516 8.60154046 44.87217429 14.97319219 42 22 C41.19175781 21.96519531 40.38351562 21.93039063 39.55078125 21.89453125 C37.94783203 21.85392578 37.94783203 21.85392578 36.3125 21.8125 C35.25675781 21.77769531 34.20101562 21.74289063 33.11328125 21.70703125 C29.58163401 22.03936945 27.81744571 22.88321504 25 25 C22.91498762 28.12751857 22.74356647 28.88936108 22.69702148 32.45556641 C22.68037949 33.35304596 22.66373749 34.25052551 22.64659119 35.17520142 C22.63817703 36.14090057 22.62976288 37.10659973 22.62109375 38.1015625 C22.60409927 39.09376801 22.5871048 40.08597351 22.56959534 41.10824585 C22.51641303 44.28043246 22.47613506 47.45260542 22.4375 50.625 C22.39363368 53.80446952 22.34699726 56.98383532 22.29469299 60.16317749 C22.26263085 62.14293656 22.23577401 64.12278768 22.21446228 66.10269165 C22.20097244 66.99386688 22.1874826 67.88504211 22.17358398 68.80322266 C22.16407211 69.5913736 22.15456024 70.37952454 22.14476013 71.19155884 C22 73 22 73 21 74 C19.53521494 74.09883336 18.06577042 74.13079289 16.59765625 74.1328125 C15.70755859 74.13410156 14.81746094 74.13539063 13.90039062 74.13671875 C12.49563477 74.13091797 12.49563477 74.13091797 11.0625 74.125 C10.12986328 74.12886719 9.19722656 74.13273437 8.23632812 74.13671875 C7.34494141 74.13542969 6.45355469 74.13414062 5.53515625 74.1328125 C4.714104 74.13168457 3.89305176 74.13055664 3.04711914 74.12939453 C1 74 1 74 -1 73 C-1.00364563 72.32427948 -1.00729126 71.64855896 -1.01104736 70.95236206 C-1.05289738 63.91157795 -1.12226138 56.87144418 -1.20751953 49.83105469 C-1.23572378 47.20449329 -1.25694096 44.5778471 -1.27099609 41.95117188 C-1.292432 38.17273566 -1.33908948 34.39531837 -1.390625 30.6171875 C-1.39185364 29.44509735 -1.39308228 28.2730072 -1.39434814 27.06539917 C-1.5088468 20.67411704 -1.87323377 16.94305532 -6 12 C-5.86158813 8.75033007 -4.18610248 6.44015765 -2.4375 3.75 C-1.98246094 3.04359375 -1.52742187 2.3371875 -1.05859375 1.609375 C-0.53458984 0.81273437 -0.53458984 0.81273437 0 0 Z " fill="#FAFAFA" transform="translate(640,164)"/>
  <path d="M0 0 C6.55465653 0.45204528 10.8202218 1.56852432 15.48046875 6.59765625 C16.69221384 8.03342144 17.85123547 9.51336355 19 11 C19.556875 10.2575 20.11375 9.515 20.6875 8.75 C24.16334467 4.61656309 27.71680758 1.40885131 33 0 C37.80696454 -0.30532837 42.34726953 -0.343167 47 1 C46.67021516 8.60154046 44.87217429 14.97319219 42 22 C41.19175781 21.96519531 40.38351562 21.93039063 39.55078125 21.89453125 C37.94783203 21.85392578 37.94783203 21.85392578 36.3125 21.8125 C35.25675781 21.77769531 34.20101562 21.74289063 33.11328125 21.70703125 C29.58163401 22.03936945 27.81744571 22.88321504 25 25 C22.91498762 28.12751857 22.74356647 28.88936108 22.69702148 32.45556641 C22.68037949 33.35304596 22.66373749 34.25052551 22.64659119 35.17520142 C22.63817703 36.14090057 22.62976288 37.10659973 22.62109375 38.1015625 C22.60409927 39.09376801 22.5871048 40.08597351 22.56959534 41.10824585 C22.51641303 44.28043246 22.47613506 47.45260542 22.4375 50.625 C22.39363368 53.80446952 22.34699726 56.98383532 22.29469299 60.16317749 C22.26263085 62.14293656 22.23577401 64.12278768 22.21446228 66.10269165 C22.20097244 66.99386688 22.1874826 67.88504211 22.17358398 68.80322266 C22.16407211 69.5913736 22.15456024 70.37952454 22.14476013 71.19155884 C22 73 22 73 21 74 C18.03212407 74.10030595 15.09262828 74.13871785 12.125 74.125 C11.29613281 74.12886719 10.46726562 74.13273437 9.61328125 74.13671875 C8.81535156 74.13542969 8.01742188 74.13414062 7.1953125 74.1328125 C6.46328613 74.13168457 5.73125977 74.13055664 4.97705078 74.12939453 C3 74 3 74 0 73 C-0.00808685 72.40388916 -0.01617371 71.80777832 -0.02450562 71.19360352 C-0.1108679 64.96365797 -0.21038377 58.73401908 -0.31738281 52.50439453 C-0.35555792 50.182507 -0.39043038 47.86056265 -0.421875 45.53857422 C-0.46777501 42.19217685 -0.52572829 38.84616685 -0.5859375 35.5 C-0.59748871 34.4694751 -0.60903992 33.4389502 -0.62094116 32.37719727 C-0.72176838 22.52130146 -0.72176838 22.52130146 -4.6875 13.75 C-6 12 -6 12 -5.7421875 10.15625 C-4.91696439 7.75875971 -3.81808997 5.87398457 -2.4375 3.75 C-1.98246094 3.04359375 -1.52742188 2.3371875 -1.05859375 1.609375 C-0.53458984 0.81273437 -0.53458984 0.81273437 0 0 Z " fill="#FCFCFC" transform="translate(430,164)"/>
  <path d="M0 0 C0.99451172 -0.02900391 1.98902344 -0.05800781 3.01367188 -0.08789062 C8.89080683 -0.13872413 12.89272892 0.00409323 17.3125 4.3125 C21.2539438 10.99367055 20.69588913 17.75896966 20.60546875 25.33984375 C20.59986523 26.69746937 20.5955987 28.0551011 20.59260559 29.41273499 C20.58121615 32.96547544 20.55180109 36.51784102 20.51849365 40.07043457 C20.48766443 43.70380585 20.47407296 47.33723841 20.45898438 50.97070312 C20.42692471 58.08478767 20.37580106 65.19861921 20.3125 72.3125 C17.98086164 73.47831918 16.59096518 73.44155609 13.99609375 73.4453125 C12.72668945 73.44724609 12.72668945 73.44724609 11.43164062 73.44921875 C10.54669922 73.44535156 9.66175781 73.44148438 8.75 73.4375 C7.86119141 73.44136719 6.97238281 73.44523437 6.05664062 73.44921875 C5.21166016 73.44792969 4.36667969 73.44664062 3.49609375 73.4453125 C2.32904907 73.44362061 2.32904907 73.44362061 1.13842773 73.44189453 C-0.6875 73.3125 -0.6875 73.3125 -1.6875 72.3125 C-1.7945835 70.73803158 -1.83371961 69.1588744 -1.84521484 67.58081055 C-1.85547699 66.57273849 -1.86573914 65.56466644 -1.87631226 64.52604675 C-1.88361359 63.42819351 -1.89091492 62.33034027 -1.8984375 61.19921875 C-1.92650773 58.89647729 -1.95517221 56.593743 -1.984375 54.29101562 C-2.02565772 50.64363821 -2.06252604 46.99639462 -2.08886719 43.34887695 C-2.11643147 39.8403721 -2.1623087 36.33248631 -2.2109375 32.82421875 C-2.21419037 31.7324382 -2.21744324 30.64065765 -2.22079468 29.51579285 C-2.23736115 28.49826431 -2.25392761 27.48073578 -2.27099609 26.43237305 C-2.27908295 25.53826218 -2.2871698 24.64415131 -2.29550171 23.72294617 C-2.77073214 20.80069521 -3.65763602 19.44541771 -5.6875 17.3125 C-8.77527172 16.03241738 -8.77527172 16.03241738 -11.6875 15.3125 C-11.71435412 13.00006208 -11.73382841 10.6875373 -11.75 8.375 C-11.76160156 7.08722656 -11.77320313 5.79945313 -11.78515625 4.47265625 C-11.58385018 -2.04160827 -5.25913364 0.05015067 0 0 Z " fill="#FDFDFD" transform="translate(390.6875,164.6875)"/>
  <path d="M0 0 C0.60199219 -0.18046875 1.20398438 -0.3609375 1.82421875 -0.546875 C4.75293694 -1.15680554 6.76250487 -0.50149794 9.625 0.3125 C10.58664063 0.57675781 11.54828125 0.84101563 12.5390625 1.11328125 C15 2 15 2 17 4 C17.38348215 9.65636165 16.88005618 15.18631654 16.25 20.8125 C16.11078125 22.07707031 15.9715625 23.34164062 15.828125 24.64453125 C15 28 15 28 12.9609375 30.00390625 C10.13525467 32.88024873 10.46579448 35.17131322 10.375 39.125 C10.19444444 45.80555556 10.19444444 45.80555556 8 48 C6.12060547 48.22705078 6.12060547 48.22705078 3.8671875 48.1953125 C3.06152344 48.18886719 2.25585938 48.18242187 1.42578125 48.17578125 C0.16314453 48.15064453 0.16314453 48.15064453 -1.125 48.125 C-2.39923828 48.11146484 -2.39923828 48.11146484 -3.69921875 48.09765625 C-5.79959884 48.07405647 -7.89983444 48.03818483 -10 48 C-11.42075498 43.73773505 -11.33214342 39.50149052 -11.5234375 35.03125 C-11.6856838 32.01876241 -11.6856838 32.01876241 -13.47045898 30.57543945 C-15.35949452 28.62971778 -15.55528616 27.41997011 -15.94921875 24.76171875 C-16.07490234 23.94123047 -16.20058594 23.12074219 -16.33007812 22.27539062 C-16.44802734 21.42138672 -16.56597656 20.56738281 -16.6875 19.6875 C-16.81705078 18.84509766 -16.94660156 18.00269531 -17.08007812 17.13476562 C-18.37072835 8.40068286 -18.37072835 8.40068286 -18 4 C-12.69958312 -0.49732342 -6.60152727 -1.32030545 0 0 Z " fill="#F3F3F3" transform="translate(137,141)"/>
  <path d="M0 0 C3.42947163 1.07130102 5.03087842 2.66294136 7.57783508 5.19073486 C8.98873161 6.57787689 8.98873161 6.57787689 10.4281311 7.99304199 C11.44110189 9.00985382 12.45347282 10.02726355 13.46528625 11.04522705 C14.51138052 12.08608528 15.55799378 13.12642213 16.60510254 14.16625977 C18.79462625 16.34538491 20.97651309 18.53182106 23.15351868 20.72344971 C25.94391799 23.5310536 28.7541752 26.31777481 31.57069874 29.09914017 C33.73540446 31.24188842 35.88829812 33.39620277 38.0378933 35.55410004 C39.06952036 36.58654718 40.10500352 37.61515618 41.14437294 38.63980865 C42.5951175 40.0731381 44.02832217 41.52415525 45.46064758 42.97589111 C46.28051651 43.7967218 47.10038544 44.61755249 47.94509888 45.46325684 C49.97490565 48.2214205 50.18699791 49.4950771 49.695755 52.84210205 C48.508255 54.65460205 48.508255 54.65460205 46.695755 55.84210205 C43.31266434 56.34873797 42.05475629 56.10631861 39.26548767 54.05348206 C38.42085968 53.21584824 37.57623169 52.37821442 36.70600891 51.51519775 C36.2355011 51.05505783 35.76499329 50.59491791 35.28022766 50.12083435 C33.73132596 48.5989982 32.20149869 47.05951599 30.6723175 45.5178833 C29.6015539 44.45302781 28.53012283 43.38884312 27.45805359 42.32530212 C25.21559367 40.09472154 22.98267563 37.85509672 20.7558136 35.60894775 C17.89917867 32.7294068 15.01842117 29.87546772 12.12983131 27.02802753 C9.91271766 24.83646758 7.70983279 22.63103406 5.51092148 20.42122459 C4.45409442 19.36290914 3.39265405 18.30918001 2.32660294 17.26015663 C0.83923809 15.79272099 -0.62769384 14.30748508 -2.09086609 12.815979 C-2.93072052 11.97436722 -3.77057495 11.13275543 -4.63587952 10.26564026 C-6.304245 7.84210205 -6.304245 7.84210205 -6.14570618 5.14842224 C-4.88240275 1.68589508 -3.92780657 -0.2691522 0 0 Z " fill="#303030" transform="translate(197.3042449951172,208.15789794921875)"/>
  <path d="M0 0 C3.15954305 2.54137159 4.71540886 4.14622659 6 8 C6.26119199 12.2665315 6.2314491 16.53883575 6.25 20.8125 C6.270625 21.98876953 6.29125 23.16503906 6.3125 24.37695312 C6.36142039 35.19447425 6.36142039 35.19447425 3 40 C0.61874088 42.38125912 -0.10707538 42.34521641 -3.375 42.4375 C-6.81049244 42.34375462 -7.69521917 42.25007658 -10.4375 40 C-13.75649766 33.62752449 -14.38931875 27.12842532 -14.375 20.0625 C-14.37411377 19.27488281 -14.37322754 18.48726562 -14.37231445 17.67578125 C-14.25495584 11.91865616 -13.59792824 6.71701629 -10 2 C-6.24952518 -0.50031654 -4.44143734 -0.53603554 0 0 Z " fill="#444444" transform="translate(726,180)"/>
  <path d="M0 0 C15 0 15 0 20 4 C23.014144 9.300736 23.8864829 14.03367128 23 20 C21.67991339 24.64640655 19.89705042 28.05694699 16.5625 31.5625 C13 33 13 33 0 33 C0 22.11 0 11.22 0 0 Z " fill="#404040" transform="translate(581,156)"/>
  <path d="M0 0 C2.07361988 -0.24756445 2.07361988 -0.24756445 4 -1 C7.76624671 -2.25541557 9.37188934 -1.37061958 13 0 C12.78001527 3.1070608 12.51886779 6.20931754 12.25 9.3125 C12.1571875 10.63411133 12.1571875 10.63411133 12.0625 11.98242188 C11.84288509 14.38903529 11.60222413 16.65881083 11 19 C8.96875 20.65625 8.96875 20.65625 7 22 C6.29727224 25.41627532 6.29727224 25.41627532 6.25 29.1875 C6.19328125 30.45980469 6.1365625 31.73210937 6.078125 33.04296875 C6.05234375 34.01878906 6.0265625 34.99460938 6 36 C2.7 36 -0.6 36 -4 36 C-4.02578125 35.02417969 -4.0515625 34.04835937 -4.078125 33.04296875 C-4.13484375 31.77066406 -4.1915625 30.49835938 -4.25 29.1875 C-4.29640625 27.92292969 -4.3428125 26.65835938 -4.390625 25.35546875 C-4.59171875 24.24816406 -4.7928125 23.14085937 -5 22 C-5.6496875 21.5565625 -6.299375 21.113125 -6.96875 20.65625 C-9.50036327 18.59201149 -9.42211418 17.72202935 -9.828125 14.55078125 C-9.98731881 12.80628244 -10.12728267 11.05994363 -10.25 9.3125 C-10.32734375 8.41982422 -10.4046875 7.52714844 -10.484375 6.60742188 C-10.6727517 4.40576924 -10.84394343 2.20414043 -11 0 C-3.84286095 -2.25271159 -3.84286095 -2.25271159 0 0 Z " fill="#2E2E2E" transform="translate(135,148)"/>
  <path d="M0 0 C1.81177734 0.00580078 1.81177734 0.00580078 3.66015625 0.01171875 C6.71099321 0.29171213 8.46802556 0.54182168 10.9375 2.3125 C11.96585363 5.39756088 12.07118434 7.5819272 12.0625 10.8125 C12.06636719 12.25109375 12.06636719 12.25109375 12.0703125 13.71875 C11.9375 16.3125 11.9375 16.3125 10.9375 19.3125 C7.09980714 21.40198794 3.69216115 21.58251002 -0.625 21.5625 C-2.29755859 21.57023437 -2.29755859 21.57023437 -4.00390625 21.578125 C-6.96368991 21.32108121 -8.65060657 21.01501301 -11.0625 19.3125 C-12.16693287 15.99920139 -12.33537805 13.30035734 -12.4375 9.8125 C-12.48648437 8.6678125 -12.53546875 7.523125 -12.5859375 6.34375 C-12.0625 3.3125 -12.0625 3.3125 -9.98046875 1.42578125 C-6.47859749 0.08972595 -3.74351898 -0.05204893 0 0 Z " fill="#F9F9F9" transform="translate(397.0625,133.6875)"/>
  <path d="M0 0 C2.9375 1.9375 2.9375 1.9375 5 5 C5.63396319 8.12532731 5.64809361 10.87630555 5 14 C3.12379387 16.50160818 1.76108697 17.61945652 -1 19 C-4.87214182 19.43023798 -6.52496371 19.31669086 -9.8125 17.125 C-12.83584667 14.18803467 -12.96391701 13.44742902 -13.3125 9.125 C-13.28345157 5.92386325 -13.16152336 5.20998037 -11.125 2.5625 C-7.30491164 -0.2463885 -4.75836021 -0.48390104 0 0 Z " fill="#F5F5F5" transform="translate(140,117)"/>
  <path d="M0 0 C3.37116965 3.7323664 3.75 8.06452667 3.75 12.9375 C-2.52 12.9375 -8.79 12.9375 -15.25 12.9375 C-15.25 4.7375 -15.25 4.7375 -11.25 -0.0625 C-7.22108383 -1.40547206 -3.92353381 -1.85277985 0 0 Z " fill="#424242" transform="translate(517.25,180.0625)"/>
  <path d="M0 0 C4.70588235 0.70588235 4.70588235 0.70588235 6 2 C6.125 4.5 6.125 4.5 6 7 C5 8 5 8 2.5625 8.1875 C0 8 0 8 -2 6 C-1.44444444 1.44444444 -1.44444444 1.44444444 0 0 Z " fill="#333333" transform="translate(134,122)"/>
</svg>
