<?xml version="1.0" encoding="UTF-8"?>
<svg xmlns="http://www.w3.org/2000/svg" xmlns:xlink="http://www.w3.org/1999/xlink" width="1000px" height="1000px" viewBox="0 0 1000 1000" version="1.1">
<g id="surface1">
<path style=" stroke:none;fill-rule:evenodd;fill:rgb(98.431373%,98.431373%,98.431373%);fill-opacity:1;" d="M 775 778.996094 C 720.675781 780.996094 666.007812 781.660156 611.003906 781.003906 C 560.1875 708.074219 509.855469 634.738281 460 561.003906 C 397.707031 634.558594 334.707031 707.558594 271.003906 780 C 255 781.335938 238.996094 781.335938 223 780 C 294.363281 696.648438 365.695312 613.308594 437 530 C 365.429688 425.207031 294.09375 320.207031 223 215 C 277.65625 212.664062 332.324219 212.335938 387 213.996094 C 434.914062 283.496094 482.578125 353.15625 530 423 C 589.425781 353.152344 649.09375 283.484375 708.996094 213.996094 C 725.664062 212.664062 742.335938 212.664062 758.996094 213.996094 C 689.558594 293.429688 620.890625 373.429688 553 453.996094 C 626.628906 562.625 700.632812 670.957031 775 778.996094 Z M 775 778.996094 "/>
<path style=" stroke:none;fill-rule:evenodd;fill:rgb(18.039216%,18.039216%,18.039216%);fill-opacity:1;" d="M 707 743 C 683.664062 744.335938 660.332031 745.664062 637 747 C 520.304688 582.65625 404.304688 417.65625 288.996094 252 C 314.363281 250.332031 339.695312 250.671875 365 253 C 478.527344 416.738281 592.527344 580.070312 707 743 Z M 707 743 "/>
<path style=" stroke:none;fill-rule:evenodd;fill:rgb(12.941177%,12.941177%,12.941177%);fill-opacity:1;" d="M 775 778.996094 C 776.085938 779.121094 776.75 779.785156 777 781.003906 C 721.339844 783.660156 666.007812 783.660156 611.003906 781.003906 C 666.007812 781.660156 720.675781 780.996094 775 778.996094 Z M 775 778.996094 "/>
</g>
</svg>
